# xmcd CD database file
#
# Track frame offsets:
#	150
#	20872
#	45360
#	64232
#	87530
#	107522
#	132360
#	147335
#	165100
#	189465
#	218785
#	232602
#	248085
#	264690
#	274640
#
# Disc length: 4169 seconds
#
# Revision: 0
# Processed by: cddbd v1.5.1PL0 Copyright (c) Steve Scherf et al.
# Submitted via: CDex 1.51
#
DISCID=cc10470f
DTITLE=DJ EMMA - Live at Yellow, Tokyo
DYEAR=2005
DGENRE=General Dance
TTITLE0=One Eye Shut
TTITLE1=The Fruits -Tom Novy Club Remix-
TTITLE2=516 Acid -Original-
TTITLE3=Now Listen -The Original Mix-
TTITLE4=Nolas Scream
TTITLE5=Sexy Queen
TTITLE6=PVC -Eric Prydz Remix-
TTITLE7=Soul Roots -Pianohouse Mix-
TTITLE8=Small Circle Of Friends -DJ Fist Madness Remix-
TTITLE9=Bang!
TTITLE10=Vanilla
TTITLE11=So High -Original-
TTITLE12=Gypsy Woman
TTITLE13=I Feel Love
TTITLE14=Sweet Amazing -Malawi Rocks Remix-
EXTD=YEAR: 2005
EXTT0=
EXTT1=
EXTT2=
EXTT3=
EXTT4=
EXTT5=
EXTT6=
EXTT7=
EXTT8=
EXTT9=
EXTT10=
EXTT11=
EXTT12=
EXTT13=
EXTT14=
PLAYORDER=
